<?xml version="1.0" standalone="no"?>
<!DOCTYPE svg PUBLIC "-//W3C//DTD SVG 20010904//EN"
 "http://www.w3.org/TR/2001/REC-SVG-20010904/DTD/svg10.dtd">
<svg version="1.0" xmlns="http://www.w3.org/2000/svg"
 width="64px" height="64px" viewBox="0 0 64.000000 64.000000"
 preserveAspectRatio="xMidYMid meet">

<g transform="translate(0.000000,64.000000) scale(0.100000,-0.100000)"
fill="#ffffff" stroke="none">
<path d="M176 569 l-139 -71 6 -81 c13 -180 99 -328 229 -397 l48 -25 47 25
c69 36 139 110 173 182 37 77 62 189 58 254 l-3 49 -120 61 c-66 34 -129 64
-140 67 -13 4 -68 -19 -159 -64z m259 -67 c89 -46 90 -47 87 -82 -11 -139 -77
-264 -168 -320 l-34 -22 -34 22 c-45 27 -90 79 -120 138 -26 51 -60 197 -50
213 10 17 178 98 204 98 14 0 66 -21 115 -47z"/>
<path d="M228 470 c-76 -39 -77 -41 -72 -72 20 -117 65 -205 128 -253 l36 -27
36 27 c63 48 108 136 128 253 5 32 4 33 -74 72 -44 22 -85 40 -92 40 -7 -1
-48 -19 -90 -40z"/>
</g>
</svg>
