<?xml version="1.0" standalone="no"?>
<!DOCTYPE svg PUBLIC "-//W3C//DTD SVG 20010904//EN"
 "http://www.w3.org/TR/2001/REC-SVG-20010904/DTD/svg10.dtd">
<svg version="1.0" xmlns="http://www.w3.org/2000/svg"
 width="64px" height="64px" viewBox="0 0 64.000000 64.000000"
 preserveAspectRatio="xMidYMid meet">

<g transform="translate(0.000000,64.000000) scale(0.100000,-0.100000)"
fill="#ffffff" stroke="none">
<path d="M240 631 c-135 -44 -228 -156 -237 -286 -5 -69 15 -150 37 -150 10 0
14 8 11 25 -2 14 -4 61 -4 105 -2 93 16 136 80 196 62 60 98 73 188 74 92 0
174 -27 154 -51 -16 -19 -5 -30 46 -44 60 -17 70 -7 49 53 -15 44 -35 59 -49
38 -3 -6 -30 2 -62 16 -60 27 -166 40 -213 24z"/>
<path d="M272 518 c-7 -7 -12 -20 -12 -29 0 -19 -33 -33 -72 -30 -23 2 -31 -5
-49 -40 -19 -39 -20 -44 -5 -54 21 -16 21 -74 0 -90 -15 -10 -14 -15 6 -54 19
-37 25 -42 48 -38 33 6 72 -11 72 -33 0 -26 21 -40 60 -40 39 0 60 14 60 40 0
22 39 39 72 33 23 -4 29 1 48 38 20 39 21 44 6 54 -21 16 -21 74 0 90 15 10
14 15 -5 54 -18 35 -26 42 -49 40 -39 -3 -72 11 -72 30 0 27 -21 41 -60 41
-20 0 -41 -5 -48 -12z m83 -163 c14 -13 25 -29 25 -35 0 -14 -46 -60 -60 -60
-14 0 -60 46 -60 60 0 14 46 60 60 60 6 0 22 -11 35 -25z"/>
<path d="M585 440 c-3 -6 -1 -27 6 -47 15 -46 7 -149 -16 -193 -24 -48 -82
-107 -130 -133 -54 -29 -181 -31 -243 -3 -32 15 -40 22 -31 32 16 19 5 30 -46
44 -60 17 -70 7 -49 -53 15 -44 35 -59 49 -38 3 6 31 -2 63 -17 47 -23 70 -27
137 -26 67 0 89 5 132 27 104 54 170 149 179 260 8 90 -26 187 -51 147z"/>
</g>
</svg>
