<?xml version="1.0" standalone="no"?>
<!DOCTYPE svg PUBLIC "-//W3C//DTD SVG 20010904//EN"
 "http://www.w3.org/TR/2001/REC-SVG-20010904/DTD/svg10.dtd">
<svg version="1.0" xmlns="http://www.w3.org/2000/svg"
 width="64px" height="64px" viewBox="0 0 64.000000 64.000000"
 preserveAspectRatio="xMidYMid meet">

<g transform="translate(0.000000,64.000000) scale(0.100000,-0.100000)"
fill="#ffffff" stroke="none">
<path d="M274 519 c-68 -13 -144 -58 -211 -124 -35 -35 -63 -68 -63 -75 0 -7
29 -41 64 -76 173 -173 359 -167 530 16 25 27 46 54 46 60 0 18 -90 108 -144
143 -77 51 -151 70 -222 56z m107 -84 c117 -61 71 -245 -62 -245 -40 0 -95 34
-114 70 -58 111 65 232 176 175z"/>
<path d="M285 355 c-14 -13 -25 -29 -25 -35 0 -14 46 -60 60 -60 14 0 60 46
60 60 0 6 -11 22 -25 35 -13 14 -29 25 -35 25 -6 0 -22 -11 -35 -25z"/>
</g>
</svg>
